<?xml version="1.0" standalone="no"?><!DOCTYPE svg PUBLIC "-//W3C//DTD SVG 1.1//EN" 	"http://www.w3.org/Graphics/SVG/1.1/DTD/svg11.dtd">
<svg width="960" height="882" version="1.1"	xmlns="http://www.w3.org/2000/svg"><title>Krona (snapshot) - all</title><defs>	
<style type="text/css">	text {font-size: 14px; font-family: sans-serif; dominant-baseline:central}	path {stroke-width:0.35000000000000003;}	path.wedge {stroke:none}	path.line {fill:none;stroke:black;}	line {stroke:black;stroke-width:0.35000000000000003;}	line.tick {stroke-width:0.7000000000000001;}	line.pattern {stroke-width:0.23333333333333334;}	circle {fill:none;stroke:black;stroke-width:0.35000000000000003;}	rect {stroke:black;stroke-width:0.35000000000000003;}	.highlight {stroke:black;stroke-width:1.75;}	.searchHighlight {fill:rgb(255, 255, 100);stroke:none;}	</style><pattern id="hiddenPattern" patternUnits="userSpaceOnUse" x="0" y="0" width="8.4" height="8.4"><line class="pattern" x1="0" y1="0" x2="4.2" y2="4.2"/><line class="pattern" x1="4.2" y1="8.4" x2="8.4" y2="4.2"/></pattern></defs><path class="wedge" fill="rgb(207,111,111)" d=" M 405,515.925 L 405,740.7 A 299.7,299.7 0 1,1 647.3576060149258,617.303377184653 L 465.58940150373144,485.07584429616327 A 74.925,74.925 0 1 0 405,515.925 Z "/><path class="wedge" fill="rgb(210,121,121)" d=" M 405,560.6116633963453 L 405,740.7 A 299.7,299.7 0 1,1 647.3576060149258,617.303377184653 L 501.72604735469264,511.3634975223544 A 119.61166339634532,119.61166339634532 0 1 0 405,560.6116633963453 Z "/><path class="wedge" fill="rgb(213,130,130)" d=" M 405,595.5053865958838 L 405,740.7 A 299.7,299.7 0 1,1 647.3576060149258,617.303377184653 L 529.9434621681314,531.8902951287112 A 154.5053865958838,154.5053865958838 0 1 0 405,595.5053865958838 Z "/><path class="wedge" fill="rgb(216,140,140)" d=" M 405,623.4976787398009 L 405,740.7 A 299.7,299.7 0 1,1 647.3831717706148,617.2682275465905 L 552.5954828619541,548.3358103531259 A 182.49767873980096,182.49767873980096 0 1 0 405,623.4976787398009 Z "/><path class="wedge" fill="rgb(219,149,149)" d=" M 405,646.4466175093759 L 405,740.7 A 299.7,299.7 0 1,1 647.3831717706148,617.2682275465905 L 571.1554981029925,561.8332036163498 A 205.44661750937587,205.44661750937587 0 1 0 405,646.4466175093759 Z "/><path class="wedge" fill="rgb(223,159,159)" d=" M 405,665.5996484552647 L 405,740.7 A 299.7,299.7 0 1,1 647.3831717706148,617.2682275465905 L 586.6455627999737,573.0980378404967 A 224.5996484552647,224.5996484552647 0 1 0 405,665.5996484552647 Z "/><path class="wedge" fill="rgb(226,168,168)" d=" M 405,681.8249138660267 L 405,740.7 A 299.7,299.7 0 1,1 695.5516246389452,367.5163731184325 L 638.4737069646583,381.9519916105548 A 240.82491386602663,240.82491386602663 0 1 0 405,681.8249138660267 Z "/><path class="wedge" fill="rgb(226,191,168)" d=" M 638.4737069646583,381.9519916105548 L 695.5516246389452,367.5163731184325 A 299.7,299.7 0 0,1 696.6508863875094,509.9916695651005 L 639.357022333074,496.4384814163787 A 240.82491386602663,240.82491386602663 0 0 0 638.4737069646583,381.9519916105548 Z "/><path class="wedge" fill="rgb(226,194,168)" d=" M 639.357022333074,496.4384814163787 L 696.6508863875094,509.9916695651005 A 299.7,299.7 0 0,1 678.5492078163131,563.4374162707935 L 624.8113593943391,539.3849857437193 A 240.82491386602663,240.82491386602663 0 0 0 639.357022333074,496.4384814163787 Z "/><path class="wedge" fill="rgb(226,195,168)" d=" M 624.8113593943391,539.3849857437193 L 678.5492078163131,563.4374162707935 A 299.7,299.7 0 0,1 651.4484837682811,611.5380744828417 L 603.0344840704342,578.0364267541155 A 240.82491386602663,240.82491386602663 0 0 0 624.8113593943391,539.3849857437193 Z "/><path class="wedge" fill="rgb(226,196,168)" d=" M 603.0344840704342,578.0364267541155 L 651.4484837682811,611.5380744828417 A 299.7,299.7 0 0,1 647.3831717706148,617.2682275465905 L 599.767789336779,582.640909964047 A 240.82491386602663,240.82491386602663 0 0 0 603.0344840704342,578.0364267541155 Z "/><path class="wedge" fill="url(#hiddenPattern)" d=" M 603.0344840704342,578.0364267541155 L 651.4484837682811,611.5380744828417 A 299.7,299.7 0 0,1 647.3831717706148,617.2682275465905 L 599.767789336779,582.640909964047 A 240.82491386602663,240.82491386602663 0 0 0 603.0344840704342,578.0364267541155 Z "/><path class="wedge" fill="rgb(213,171,130)" d=" M 552.5954828619541,548.3358103531259 L 647.3831717706148,617.2682275465905 A 299.7,299.7 0 0,1 647.3576060149258,617.303377184653 L 552.579914990521,548.3572141814707 A 182.49767873980096,182.49767873980096 0 0 0 552.5954828619541,548.3358103531259 Z "/><path class="wedge" fill="url(#hiddenPattern)" d=" M 552.5954828619541,548.3358103531259 L 647.3831717706148,617.2682275465905 A 299.7,299.7 0 0,1 647.3576060149258,617.303377184653 L 552.579914990521,548.3572141814707 A 182.49767873980096,182.49767873980096 0 0 0 552.5954828619541,548.3358103531259 Z "/><path class="wedge" fill="rgb(207,204,111)" d=" M 465.58940150373144,485.07584429616327 L 647.3576060149258,617.303377184653 A 299.7,299.7 0 0,1 446.7670871557142,737.7753366277714 L 415.4417717889285,515.1938341569428 A 74.925,74.925 0 0 0 465.58940150373144,485.07584429616327 Z "/><path class="wedge" fill="rgb(122,207,111)" d=" M 415.4417717889285,515.1938341569428 L 446.7670871557142,737.7753366277714 A 299.7,299.7 0 0,1 410.6412725610424,740.6469022764827 L 406.4103181402606,515.9117255691207 A 74.925,74.925 0 0 0 415.4417717889285,515.1938341569428 Z "/><path class="wedge" fill="rgb(130,210,121)" d=" M 421.66943867172205,559.4444166468404 L 446.7670871557142,737.7753366277714 A 299.7,299.7 0 0,1 410.64344536760353,740.6468613624759 L 407.2523252843025,560.5904555190518 A 119.61166339634532,119.61166339634532 0 0 0 421.66943867172205,559.4444166468404 Z "/><path class="wedge" fill="rgb(139,213,130)" d=" M 426.5323321587507,593.9976246840085 L 446.7670871557142,737.7753366277714 A 299.7,299.7 0 0,1 410.64561817386794,740.6468204327135 L 407.91050523365436,595.4779707480272 A 154.5053865958838,154.5053865958838 0 0 0 426.5323321587507,593.9976246840085 Z "/><path class="wedge" fill="rgb(148,216,140)" d=" M 430.43342160040305,621.7167502228605 L 446.7670871557142,737.7753366277714 A 299.7,299.7 0 0,1 410.64996378550586,740.6467385259223 L 408.44045804410666,623.4652459890988 A 182.49767873980096,182.49767873980096 0 0 0 430.43342160040305,621.7167502228605 Z "/><path class="wedge" fill="rgb(157,219,149)" d=" M 433.6316542521214,644.4417386399132 L 446.7670871557142,737.7753366277714 A 299.7,299.7 0 0,1 414.1716101328153,740.5596294021803 L 411.2872081378099,646.3503924025363 A 205.44661750937587,205.44661750937587 0 0 0 433.6316542521214,644.4417386399132 Z "/><path class="wedge" fill="rgb(166,223,159)" d=" M 436.3008778517644,663.4078621180856 L 446.7670871557142,737.7753366277714 A 299.7,299.7 0 0,1 414.1716101328153,740.5596294021803 L 411.8733413800436,665.4944526363666 A 224.5996484552647,224.5996484552647 0 0 0 436.3008778517644,663.4078621180856 Z "/><path class="wedge" fill="rgb(175,226,168)" d=" M 438.5620793016673,679.4747910608745 L 446.7670871557142,737.7753366277714 A 299.7,299.7 0 0,1 414.1716101328153,740.5596294021803 L 412.36987727810487,681.7121186136768 A 240.82491386602663,240.82491386602663 0 0 0 438.5620793016673,679.4747910608745 Z "/><path class="wedge" fill="rgb(140,216,165)" d=" M 411.2872081378099,646.3503924025363 L 414.1716101328153,740.5596294021803 A 299.7,299.7 0 0,1 410.64996378550586,740.6467385259223 L 408.8730929221977,646.410106365923 A 205.44661750937587,205.44661750937587 0 0 0 411.2872081378099,646.3503924025363 Z "/><path class="wedge" fill="url(#hiddenPattern)" d=" M 411.2872081378099,646.3503924025363 L 414.1716101328153,740.5596294021803 A 299.7,299.7 0 0,1 410.64996378550586,740.6467385259223 L 408.8730929221977,646.410106365923 A 205.44661750937587,205.44661750937587 0 0 0 411.2872081378099,646.3503924025363 Z "/><path class="wedge" fill="rgb(130,213,160)" d=" M 408.44045804410666,623.4652459890988 L 410.64996378550586,740.6467385259223 A 299.7,299.7 0 0,1 410.64561817386794,740.6468204327135 L 408.43781185112493,623.4652958649723 A 182.49767873980096,182.49767873980096 0 0 0 408.44045804410666,623.4652459890988 Z "/><path class="wedge" fill="url(#hiddenPattern)" d=" M 408.44045804410666,623.4652459890988 L 410.64996378550586,740.6467385259223 A 299.7,299.7 0 0,1 410.64561817386794,740.6468204327135 L 408.43781185112493,623.4652958649723 A 182.49767873980096,182.49767873980096 0 0 0 408.44045804410666,623.4652459890988 Z "/><path class="wedge" fill="rgb(121,210,153)" d=" M 407.91050523365436,595.4779707480272 L 410.64561817386794,740.6468204327135 A 299.7,299.7 0 0,1 410.64344536760353,740.6468613624759 L 407.9093850792604,595.4779918486905 A 154.5053865958838,154.5053865958838 0 0 0 407.91050523365436,595.4779707480272 Z "/><path class="wedge" fill="url(#hiddenPattern)" d=" M 407.91050523365436,595.4779707480272 L 410.64561817386794,740.6468204327135 A 299.7,299.7 0 0,1 410.64344536760353,740.6468613624759 L 407.9093850792604,595.4779918486905 A 154.5053865958838,154.5053865958838 0 0 0 407.91050523365436,595.4779707480272 Z "/><path class="wedge" fill="rgb(111,207,146)" d=" M 407.2523252843025,560.5904555190518 L 410.64344536760353,740.6468613624759 A 299.7,299.7 0 0,1 410.6412725610424,740.6469022764827 L 407.2514581071019,560.5904718480222 A 119.61166339634532,119.61166339634532 0 0 0 407.2523252843025,560.5904555190518 Z "/><path class="wedge" fill="url(#hiddenPattern)" d=" M 407.2523252843025,560.5904555190518 L 410.64344536760353,740.6468613624759 A 299.7,299.7 0 0,1 410.6412725610424,740.6469022764827 L 407.2514581071019,560.5904718480222 A 119.61166339634532,119.61166339634532 0 0 0 407.2523252843025,560.5904555190518 Z "/><path class="wedge" fill="rgb(101,204,178)" d=" M 406.4103181402606,515.9117255691207 L 410.6412725610424,740.6469022764827 A 299.7,299.7 0 0,1 405.4302918152842,740.6996911058696 L 405.10757295382103,515.9249227764674 A 74.925,74.925 0 0 0 406.4103181402606,515.9117255691207 Z "/><path class="wedge" fill="url(#hiddenPattern)" d=" M 406.4103181402606,515.9117255691207 L 410.6412725610424,740.6469022764827 A 299.7,299.7 0 0,1 405.4302918152842,740.6996911058696 L 405.10757295382103,515.9249227764674 A 74.925,74.925 0 0 0 406.4103181402606,515.9117255691207 Z "/><rect fill="rgb(101,204,178)" x="919.85" y="692.5166666666667" width="28" height="28"/><rect fill="url(#hiddenPattern)" style="stroke:none" x="919.85" y="692.5166666666667" width="28" height="28"/><path class="line" d="M 408.0358969282729,740.6846231120992 L 408.65811904645494,802.106471542732 A 361.12499999999994,361.12499999999994 0 0,0 649.769616879265,706.5166666666667 L 800.5166666666667,706.5166666666667"/><text x="910.5166666666667" y="706.5166666666667" style="font-color:black;font-weight:normal" text-anchor="end">Bacteria&#160;&#160;&#160;0.3%</text><path class="wedge" fill="rgb(101,148,204)" d=" M 405.10757295382103,515.9249227764674 L 405.4302918152842,740.6996911058696 A 299.7,299.7 0 0,1 405.0912740513711,740.6999861011801 L 405.0228185128428,515.924996525295 A 74.925,74.925 0 0 0 405.10757295382103,515.9249227764674 Z "/><path class="wedge" fill="url(#hiddenPattern)" d=" M 405.10757295382103,515.9249227764674 L 405.4302918152842,740.6996911058696 A 299.7,299.7 0 0,1 405.0912740513711,740.6999861011801 L 405.0228185128428,515.924996525295 A 74.925,74.925 0 0 0 405.10757295382103,515.9249227764674 Z "/><rect fill="rgb(101,148,204)" x="919.85" y="729.85" width="28" height="28"/><rect fill="url(#hiddenPattern)" style="stroke:none" x="919.85" y="729.85" width="28" height="28"/><path class="line" d="M 405.26078297503955,740.699886540252 L 405.3218672754993,810.8998599640947 A 369.9,369.9 0 0,0 617.3861753975525,743.85 L 779.5166666666667,743.85"/><text x="910.5166666666667" y="743.85" style="font-color:black;font-weight:normal" text-anchor="end">Eukaryota&#160;&#160;&#160;0.02%</text><path class="wedge" fill="rgb(128,101,204)" d=" M 405.0228185128428,515.924996525295 L 405.0912740513711,740.6999861011801 A 299.7,299.7 0 0,1 405.0239051090367,740.6999990466229 L 405.00597627725915,515.9249997616557 A 74.925,74.925 0 0 0 405.0228185128428,515.924996525295 Z "/><path class="wedge" fill="url(#hiddenPattern)" d=" M 405.0228185128428,515.924996525295 L 405.0912740513711,740.6999861011801 A 299.7,299.7 0 0,1 405.0239051090367,740.6999990466229 L 405.00597627725915,515.9249997616557 A 74.925,74.925 0 0 0 405.0228185128428,515.924996525295 Z "/><rect fill="rgb(128,101,204)" x="919.85" y="767.1833333333334" width="28" height="28"/><rect fill="url(#hiddenPattern)" style="stroke:none" x="919.85" y="767.1833333333334" width="28" height="28"/><path class="line" d="M 405.0575895805674,740.6999944668671 L 405.0727652132845,819.6749930088118 A 378.67499999999995,378.67499999999995 0 0,0 571.3431854547163,781.1833333333334 L 765.5166666666667,781.1833333333334 L 834.5166666666667,781.1833333333334"/><text x="910.5166666666667" y="781.1833333333334" style="font-color:black;font-weight:normal" text-anchor="end"> &#160;&#160;&#160;0.004%</text><path class="wedge" fill="rgb(191,101,204)" d=" M 405.00597627725915,515.9249997616557 L 405.0239051090367,740.6999990466229 A 299.7,299.7 0 0,1 405.0043463834656,740.6999999684833 L 405.0010865958664,515.9249999921209 A 74.925,74.925 0 0 0 405.00597627725915,515.9249997616557 Z "/><path class="wedge" fill="url(#hiddenPattern)" d=" M 405.00597627725915,515.9249997616557 L 405.0239051090367,740.6999990466229 A 299.7,299.7 0 0,1 405.0043463834656,740.6999999684833 L 405.0010865958664,515.9249999921209 A 74.925,74.925 0 0 0 405.00597627725915,515.9249997616557 Z "/><rect fill="rgb(191,101,204)" x="919.85" y="804.5166666666668" width="28" height="28"/><rect fill="url(#hiddenPattern)" style="stroke:none" x="919.85" y="804.5166666666668" width="28" height="28"/><path class="line" d="M 405.01412574625857,740.6999996671059 L 405.0182616629559,828.4499995696369 A 387.45,387.45 0 0,0 492.17034409068725,818.5166666666668 L 751.5166666666667,818.5166666666668 L 801.5166666666667,818.5166666666668"/><text x="910.5166666666667" y="818.5166666666668" style="font-color:black;font-weight:normal" text-anchor="end">Fungi&#160;&#160;&#160;0.001%</text><path class="wedge" fill="rgb(204,101,164)" d=" M 405.0010865958664,515.9249999921209 L 405.0043463834656,740.6999999684833 A 299.7,299.7 0 0,1 405.0000000000001,740.7 L 405,515.925 A 74.925,74.925 0 0 0 405.0010865958664,515.9249999921209 Z "/><path class="wedge" fill="url(#hiddenPattern)" d=" M 405.0010865958664,515.9249999921209 L 405.0043463834656,740.6999999684833 A 299.7,299.7 0 0,1 405.0000000000001,740.7 L 405,515.925 A 74.925,74.925 0 0 0 405.0010865958664,515.9249999921209 Z "/><rect fill="rgb(204,101,164)" x="919.85" y="841.85" width="28" height="28"/><rect fill="url(#hiddenPattern)" style="stroke:none" x="919.85" y="841.85" width="28" height="28"/><path class="line" d="M 405.0021731917327,740.6999999921209 L 405.0030081701379,855.85 L 737.5166666666667,855.85 L 746.5166666666667,855.85"/><text x="910.5166666666667" y="855.85" style="font-color:black;font-weight:normal" text-anchor="end">Viridiplantae&#160;&#160;&#160;0.0002%</text><circle cx="405" cy="441" r="74.925"/><circle cx="405" cy="441" r="299.7"/><text x="405" y="441" text-anchor="middle" style="font-color:black;font-weight:bold" transform="rotate(360,405,441)">all</text><path class="line" d=" M 465.58940150373144,485.07584429616327 A 74.925,74.925 0 1 0 405,515.925"/><line x1="647.3576060149258" y1="617.303377184653" x2="465.58940150373144" y2="485.07584429616327"/><text x="405" y="352.6690009810964" text-anchor="middle" style="font-color:black;font-weight:normal" transform="rotate(333.01703404500864,405,441)">Viruses</text><path class="line" d=" M 501.72604735469264,511.3634975223544 A 119.61166339634532,119.61166339634532 0 1 0 405,560.6116633963453"/><text x="405" y="310.92021964379313" text-anchor="middle" style="font-color:black;font-weight:normal" transform="rotate(333.01703404500864,405,441)"> </text><path class="line" d=" M 529.9434621681314,531.8902951287112 A 154.5053865958838,154.5053865958838 0 1 0 405,595.5053865958838"/><text x="405" y="272.4984673321576" text-anchor="middle" style="font-color:black;font-weight:normal" transform="rotate(333.01703404500864,405,441)"> </text><path class="line" d=" M 552.5954828619541,548.3358103531259 A 182.49767873980096,182.49767873980096 0 1 0 405,623.4976787398009"/><line x1="647.3831717706148" y1="617.2682275465905" x2="552.5954828619541" y2="548.3358103531259"/><text x="405" y="247.02785187541159" text-anchor="middle" style="font-color:black;font-weight:normal" transform="rotate(333.01287939988464,405,441)">Mononegavirales</text><path class="line" d=" M 571.1554981029925,561.8332036163498 A 205.44661750937587,205.44661750937587 0 1 0 405,646.4466175093759"/><text x="405" y="225.9768670176797" text-anchor="middle" style="font-color:black;font-weight:normal" transform="rotate(333.01287939988464,405,441)">Paramyxoviridae</text><path class="line" d=" M 586.6455627999737,573.0980378404967 A 224.5996484552647,224.5996484552647 0 1 0 405,665.5996484552647"/><path class="line" d=" M 638.4737069646583,381.9519916105548 A 240.82491386602663,240.82491386602663 0 1 0 405,681.8249138660267"/><line x1="695.5516246389452" y1="367.5163731184325" x2="638.4737069646583" y2="381.9519916105548"/><path class="line" d=" M 639.357022333074,496.4384814163787 A 240.82491386602663,240.82491386602663 0 0 0 638.4737069646583,381.9519916105548"/><line x1="696.6508863875094" y1="509.9916695651005" x2="639.357022333074" y2="496.4384814163787"/>
<text x="600.2624569330133" y="441" text-anchor="start" style="font-color:black;font-weight:normal" transform="rotate(359.55794575879975,405,441)">8%&#160;&#160;&#160;Measles virus (gen. and isolates)</text><path class="line" d=" M 624.8113593943391,539.3849857437193 A 240.82491386602663,240.82491386602663 0 0 0 639.357022333074,496.4384814163787"/><line x1="678.5492078163131" y1="563.4374162707935" x2="624.8113593943391" y2="539.3849857437193"/><text x="675.2624569330133" y="441" text-anchor="start" style="font-color:black;font-weight:normal" transform="rotate(378.7108597807271,405,441)">3%&#160;&#160;&#160;Measles virus strain MVi/California.USA</text><path class="line" d=" M 603.0344840704342,578.0364267541155 A 240.82491386602663,240.82491386602663 0 0 0 624.8113593943391,539.3849857437193"/><line x1="651.4484837682811" y1="611.5380744828417" x2="603.0344840704342" y2="578.0364267541155"/><text x="675.2624569330133" y="441" text-anchor="start" style="font-color:black;font-weight:normal" transform="rotate(389.3976457010964,405,441)">3%&#160;&#160;&#160;Measles virus strain Edmonston-Zagreb</text><path class="line" d=" M 599.767789336779,582.640909964047 A 240.82491386602663,240.82491386602663 0 0 0 603.0344840704342,578.0364267541155"/><path class="line" d=" M 552.579914990521,548.3572141814707 A 182.49767873980096,182.49767873980096 0 0 0 552.5954828619541,548.3358103531259"/><path class="line" d=" M 415.4417717889285,515.1938341569428 A 74.925,74.925 0 0 0 465.58940150373144,485.07584429616327"/><line x1="446.7670871557142" y1="737.7753366277714" x2="415.4417717889285" y2="515.1938341569428"/><text x="592.3125" y="441" text-anchor="start" style="font-color:black;font-weight:normal" transform="rotate(419.0115406809002,405,441)">13%&#160;&#160;&#160;Unclassified</text><path class="line" d=" M 406.4103181402606,515.9117255691207 A 74.925,74.925 0 0 0 415.4417717889285,515.1938341569428"/><line x1="410.6412725610424" y1="740.6469022764827" x2="406.4103181402606" y2="515.9117255691207"/><text x="405" y="547.2056643774417" text-anchor="middle" style="font-color:black;font-weight:normal" transform="rotate(355.4552336987883,405,441)">Metazoa</text><path class="line" d=" M 407.2523252843025,560.5904555190518 A 119.61166339634532,119.61166339634532 0 0 0 421.66943867172205,559.4444166468404"/><line x1="410.64344536760353" y1="740.6468613624759" x2="407.2523252843025" y2="560.5904555190518"/><text x="405" y="585.0372696360223" text-anchor="middle" style="font-color:black;font-weight:normal" transform="rotate(355.455025966532,405,441)">Chordata</text><path class="line" d=" M 407.91050523365436,595.4779707480272 A 154.5053865958838,154.5053865958838 0 0 0 426.5323321587507,593.9976246840085"/><line x1="410.64561817386794" y1="740.6468204327135" x2="407.91050523365436" y2="595.4779707480272"/><text x="405" y="609.5015326678424" text-anchor="middle" style="font-color:black;font-weight:normal" transform="rotate(355.4548182342758,405,441)">Mammalia</text><path class="line" d=" M 408.44045804410666,623.4652459890988 A 182.49767873980096,182.49767873980096 0 0 0 430.43342160040305,621.7167502228605"/><line x1="410.64996378550586" y1="740.6467385259223" x2="408.44045804410666" y2="623.4652459890988"/><text x="405" y="634.9721481245884" text-anchor="middle" style="font-color:black;font-weight:normal" transform="rotate(355.4544027697634,405,441)">Primates</text><path class="line" d=" M 411.2872081378099,646.3503924025363 A 205.44661750937587,205.44661750937587 0 0 0 433.6316542521214,644.4417386399132"/><line x1="414.1716101328153" y1="740.5596294021803" x2="411.2872081378099" y2="646.3503924025363"/><text x="405" y="656.0231329823202" text-anchor="middle" style="font-color:black;font-weight:normal" transform="rotate(355.1176687824582,405,441)">Hominidae</text><path class="line" d=" M 411.8733413800436,665.4944526363666 A 224.5996484552647,224.5996484552647 0 0 0 436.3008778517644,663.4078621180856"/><path class="line" d=" M 412.36987727810487,681.7121186136768 A 240.82491386602663,240.82491386602663 0 0 0 438.5620793016673,679.4747910608745"/><text x="675.2624569330133" y="441" text-anchor="start" style="font-color:black;font-weight:normal" transform="rotate(445.1176687824582,405,441)">2%&#160;&#160;&#160;Homo sapiens</text><path class="line" d=" M 408.8730929221977,646.410106365923 A 205.44661750937587,205.44661750937587 0 0 0 411.2872081378099,646.3503924025363"/><path class="line" d=" M 408.43781185112493,623.4652958649723 A 182.49767873980096,182.49767873980096 0 0 0 408.44045804410666,623.4652459890988"/><path class="line" d=" M 407.9093850792604,595.4779918486905 A 154.5053865958838,154.5053865958838 0 0 0 407.91050523365436,595.4779707480272"/><path class="line" d=" M 407.2514581071019,560.5904718480222 A 119.61166339634532,119.61166339634532 0 0 0 407.2523252843025,560.5904555190518"/><path class="line" d=" M 405.10757295382103,515.9249227764674 A 74.925,74.925 0 0 0 406.4103181402606,515.9117255691207"/><line x1="405.4302918152842" y1="740.6996911058696" x2="405.10757295382103" y2="515.9249227764674"/><path class="line" d=" M 405.0228185128428,515.924996525295 A 74.925,74.925 0 0 0 405.10757295382103,515.9249227764674"/><line x1="405.0912740513711" y1="740.6999861011801" x2="405.0228185128428" y2="515.924996525295"/><path class="line" d=" M 405.00597627725915,515.9249997616557 A 74.925,74.925 0 0 0 405.0228185128428,515.924996525295"/><line x1="405.0239051090367" y1="740.6999990466229" x2="405.00597627725915" y2="515.9249997616557"/><path class="line" d=" M 405.0010865958664,515.9249999921209 A 74.925,74.925 0 0 0 405.00597627725915,515.9249997616557"/><line x1="405.0043463834656" y1="740.6999999684833" x2="405.0010865958664" y2="515.9249999921209"/><path class="line" d=" M 405,515.925 A 74.925,74.925 0 0 0 405.0010865958664,515.9249999921209"/><line x1="405.0000000000001" y1="740.7" x2="405" y2="515.925"/><path class="highlight" fill="rgba(255, 255, 255, .3)" d=" M 405,681.8249138660267 L 405,740.7 A 299.7,299.7 0 1,1 695.5516246389452,367.5163731184325 L 638.4737069646583,381.9519916105548 A 240.82491386602663,240.82491386602663 0 1 0 405,681.8249138660267 Z "/><rect x="-52.26245693301325" y="427" width="204" height="28" rx="14" ry="18" fill="rgba(255, 255, 255, .75)" class="highlight" transform="rotate(37.90345066358916,405,441)"/><text x="134.7375430669867" y="441" text-anchor="end" style="font-color:black;font-weight:bold" transform="rotate(37.90345066358916,405,441)">Measles virus &#160;&#160;&#160;71%</text></svg>


