<?xml version="1.0" encoding="UTF-8" standalone="no"?>
<!DOCTYPE svg PUBLIC "-//W3C//DTD SVG 1.1//EN"
 "http://www.w3.org/Graphics/SVG/1.1/DTD/svg11.dtd">
<!-- Generated by graphviz version 2.38.0 (20140413.2041)
 -->
<!-- Title: snakemake_dag Pages: 1 -->
<svg width="1403pt" height="844pt"
 viewBox="0.00 0.00 1403.00 844.00" xmlns="http://www.w3.org/2000/svg" xmlns:xlink="http://www.w3.org/1999/xlink">
<g id="graph0" class="graph" transform="scale(1 1) rotate(0) translate(4 840)">
<title>snakemake_dag</title>
<polygon fill="white" stroke="none" points="-4,4 -4,-840 1399,-840 1399,4 -4,4"/>
<g id="clust1" class="cluster"><title>cluster_0</title>
<path fill="white" stroke="white" d="M20,-432C20,-432 660,-432 660,-432 666,-432 672,-438 672,-444 672,-444 672,-816 672,-816 672,-822 666,-828 660,-828 660,-828 20,-828 20,-828 14,-828 8,-822 8,-816 8,-816 8,-444 8,-444 8,-438 14,-432 20,-432"/>
</g>
<g id="clust2" class="cluster"><title>cluster_1</title>
<path fill="white" stroke="white" d="M1265,-72C1265,-72 1375,-72 1375,-72 1381,-72 1387,-78 1387,-84 1387,-84 1387,-240 1387,-240 1387,-246 1381,-252 1375,-252 1375,-252 1265,-252 1265,-252 1259,-252 1253,-246 1253,-240 1253,-240 1253,-84 1253,-84 1253,-78 1259,-72 1265,-72"/>
</g>
<g id="clust3" class="cluster"><title>cluster_2</title>
<path fill="white" stroke="white" d="M684,-72C684,-72 1241,-72 1241,-72 1247,-72 1253,-78 1253,-84 1253,-84 1253,-528 1253,-528 1253,-534 1247,-540 1241,-540 1241,-540 684,-540 684,-540 678,-540 672,-534 672,-528 672,-528 672,-84 672,-84 672,-78 678,-72 684,-72"/>
</g>
<!-- 13 -->
<g id="node1" class="node"><title>13</title>
<path fill="none" stroke="#56a9d8" stroke-width="4" d="M606.5,-828C606.5,-828 343.5,-828 343.5,-828 337.5,-828 331.5,-822 331.5,-816 331.5,-816 331.5,-804 331.5,-804 331.5,-798 337.5,-792 343.5,-792 343.5,-792 606.5,-792 606.5,-792 612.5,-792 618.5,-798 618.5,-804 618.5,-804 618.5,-816 618.5,-816 618.5,-822 612.5,-828 606.5,-828"/>
<text text-anchor="middle" x="475" y="-813.4" font-family="sans" font-size="12.00">fastq_sampling</text>
<text text-anchor="middle" x="475" y="-800.4" font-family="sans" font-size="12.00">dataset: Hm2_GTGAAA_L005_R1_001.fastq.gz</text>
</g>
<!-- 1 -->
<g id="node2" class="node"><title>1</title>
<path fill="none" stroke="#569ad8" stroke-width="4" d="M300,-756C300,-756 182,-756 182,-756 176,-756 170,-750 170,-744 170,-744 170,-732 170,-732 170,-726 176,-720 182,-720 182,-720 300,-720 300,-720 306,-720 312,-726 312,-732 312,-732 312,-744 312,-744 312,-750 306,-756 300,-756"/>
<text text-anchor="middle" x="241" y="-734.9" font-family="sans" font-size="12.00">fastq_stats__samples</text>
</g>
<!-- 13&#45;&gt;1 -->
<g id="edge1" class="edge"><title>13&#45;&gt;1</title>
<path fill="none" stroke="grey" stroke-width="2" d="M418.056,-791.966C384.793,-782.015 342.644,-769.406 307.815,-758.987"/>
<polygon fill="grey" stroke="grey" stroke-width="2" points="308.783,-755.624 298.199,-756.111 306.776,-762.33 308.783,-755.624"/>
</g>
<!-- 22 -->
<g id="node7" class="node"><title>22</title>
<path fill="none" stroke="#56d8c9" stroke-width="4" d="M121.5,-756C121.5,-756 32.5,-756 32.5,-756 26.5,-756 20.5,-750 20.5,-744 20.5,-744 20.5,-732 20.5,-732 20.5,-726 26.5,-720 32.5,-720 32.5,-720 121.5,-720 121.5,-720 127.5,-720 133.5,-726 133.5,-732 133.5,-732 133.5,-744 133.5,-744 133.5,-750 127.5,-756 121.5,-756"/>
<text text-anchor="middle" x="77" y="-734.9" font-family="sans" font-size="12.00">fastqc__samples</text>
</g>
<!-- 13&#45;&gt;22 -->
<g id="edge33" class="edge"><title>13&#45;&gt;22</title>
<path fill="none" stroke="grey" stroke-width="2" d="M360.719,-791.967C298.788,-782.304 221.02,-769.472 152,-756 149.328,-755.478 146.606,-754.932 143.859,-754.368"/>
<polygon fill="grey" stroke="grey" stroke-width="2" points="144.351,-750.895 133.845,-752.263 142.911,-757.746 144.351,-750.895"/>
</g>
<!-- 18 -->
<g id="node14" class="node"><title>18</title>
<path fill="none" stroke="#d86656" stroke-width="4" d="M455.5,-756C455.5,-756 366.5,-756 366.5,-756 360.5,-756 354.5,-750 354.5,-744 354.5,-744 354.5,-732 354.5,-732 354.5,-726 360.5,-720 366.5,-720 366.5,-720 455.5,-720 455.5,-720 461.5,-720 467.5,-726 467.5,-732 467.5,-732 467.5,-744 467.5,-744 467.5,-750 461.5,-756 455.5,-756"/>
<text text-anchor="middle" x="411" y="-734.9" font-family="sans" font-size="12.00">bwa_mem__phix</text>
</g>
<!-- 13&#45;&gt;18 -->
<g id="edge16" class="edge"><title>13&#45;&gt;18</title>
<path fill="none" stroke="grey" stroke-width="2" d="M459.18,-791.697C451.43,-783.22 441.961,-772.864 433.476,-763.583"/>
<polygon fill="grey" stroke="grey" stroke-width="2" points="435.969,-761.123 426.638,-756.104 430.803,-765.846 435.969,-761.123"/>
</g>
<!-- 6 -->
<g id="node6" class="node"><title>6</title>
<path fill="none" stroke="#d88556" stroke-width="4" d="M133.5,-540C133.5,-540 20.5,-540 20.5,-540 14.5,-540 8.5,-534 8.5,-528 8.5,-528 8.5,-516 8.5,-516 8.5,-510 14.5,-504 20.5,-504 20.5,-504 133.5,-504 133.5,-504 139.5,-504 145.5,-510 145.5,-516 145.5,-516 145.5,-528 145.5,-528 145.5,-534 139.5,-540 133.5,-540"/>
<text text-anchor="middle" x="77" y="-518.9" font-family="sans" font-size="12.00">report_phix_removal</text>
</g>
<!-- 1&#45;&gt;6 -->
<g id="edge4" class="edge"><title>1&#45;&gt;6</title>
<path fill="none" stroke="grey" stroke-width="2" d="M221.916,-719.706C197.279,-696.731 154.014,-654.121 124,-612 109.904,-592.217 97.2574,-567.676 88.643,-549.377"/>
<polygon fill="grey" stroke="grey" stroke-width="2" points="91.7685,-547.796 84.4041,-540.179 85.4112,-550.726 91.7685,-547.796"/>
</g>
<!-- 29 -->
<g id="node3" class="node"><title>29</title>
<path fill="none" stroke="#56a9d8" stroke-width="4" d="M283.5,-828C283.5,-828 20.5,-828 20.5,-828 14.5,-828 8.5,-822 8.5,-816 8.5,-816 8.5,-804 8.5,-804 8.5,-798 14.5,-792 20.5,-792 20.5,-792 283.5,-792 283.5,-792 289.5,-792 295.5,-798 295.5,-804 295.5,-804 295.5,-816 295.5,-816 295.5,-822 289.5,-828 283.5,-828"/>
<text text-anchor="middle" x="152" y="-813.4" font-family="sans" font-size="12.00">fastq_sampling</text>
<text text-anchor="middle" x="152" y="-800.4" font-family="sans" font-size="12.00">dataset: Hm2_GTGAAA_L005_R2_001.fastq.gz</text>
</g>
<!-- 29&#45;&gt;1 -->
<g id="edge2" class="edge"><title>29&#45;&gt;1</title>
<path fill="none" stroke="grey" stroke-width="2" d="M174,-791.697C185.209,-782.881 199.002,-772.032 211.154,-762.474"/>
<polygon fill="grey" stroke="grey" stroke-width="2" points="213.557,-765.038 219.253,-756.104 209.229,-759.535 213.557,-765.038"/>
</g>
<!-- 29&#45;&gt;22 -->
<g id="edge32" class="edge"><title>29&#45;&gt;22</title>
<path fill="none" stroke="grey" stroke-width="2" d="M133.461,-791.697C124.197,-783.05 112.838,-772.449 102.743,-763.027"/>
<polygon fill="grey" stroke="grey" stroke-width="2" points="105.025,-760.369 95.3261,-756.104 100.249,-765.486 105.025,-760.369"/>
</g>
<!-- 29&#45;&gt;18 -->
<g id="edge15" class="edge"><title>29&#45;&gt;18</title>
<path fill="none" stroke="grey" stroke-width="2" d="M215.027,-791.966C254.23,-781.37 304.583,-767.761 344.432,-756.991"/>
<polygon fill="grey" stroke="grey" stroke-width="2" points="345.584,-760.306 354.324,-754.318 343.757,-753.548 345.584,-760.306"/>
</g>
<!-- 21 -->
<g id="node4" class="node"><title>21</title>
<path fill="none" stroke="#56d88a" stroke-width="4" d="M521,-612C521,-612 477,-612 477,-612 471,-612 465,-606 465,-600 465,-600 465,-588 465,-588 465,-582 471,-576 477,-576 477,-576 521,-576 521,-576 527,-576 533,-582 533,-588 533,-588 533,-600 533,-600 533,-606 527,-612 521,-612"/>
<text text-anchor="middle" x="499" y="-590.9" font-family="sans" font-size="12.00">cutadapt</text>
</g>
<!-- 0 -->
<g id="node5" class="node"><title>0</title>
<path fill="none" stroke="#56d8b9" stroke-width="4" d="M660,-540C660,-540 538,-540 538,-540 532,-540 526,-534 526,-528 526,-528 526,-516 526,-516 526,-510 532,-504 538,-504 538,-504 660,-504 660,-504 666,-504 672,-510 672,-516 672,-516 672,-528 672,-528 672,-534 666,-540 660,-540"/>
<text text-anchor="middle" x="599" y="-518.9" font-family="sans" font-size="12.00">fastq_stats__cutadapt</text>
</g>
<!-- 21&#45;&gt;0 -->
<g id="edge3" class="edge"><title>21&#45;&gt;0</title>
<path fill="none" stroke="grey" stroke-width="2" d="M523.463,-575.876C536.296,-566.893 552.196,-555.763 566.094,-546.034"/>
<polygon fill="grey" stroke="grey" stroke-width="2" points="568.258,-548.792 574.443,-540.19 564.244,-543.057 568.258,-548.792"/>
</g>
<!-- 12 -->
<g id="node11" class="node"><title>12</title>
<path fill="none" stroke="#97d856" stroke-width="4" d="M439.5,-540C439.5,-540 346.5,-540 346.5,-540 340.5,-540 334.5,-534 334.5,-528 334.5,-528 334.5,-516 334.5,-516 334.5,-510 340.5,-504 346.5,-504 346.5,-504 439.5,-504 439.5,-504 445.5,-504 451.5,-510 451.5,-516 451.5,-516 451.5,-528 451.5,-528 451.5,-534 445.5,-540 439.5,-540"/>
<text text-anchor="middle" x="393" y="-518.9" font-family="sans" font-size="12.00">fastqc__cutadapt</text>
</g>
<!-- 21&#45;&gt;12 -->
<g id="edge9" class="edge"><title>21&#45;&gt;12</title>
<path fill="none" stroke="grey" stroke-width="2" d="M473.069,-575.876C459.338,-566.808 442.294,-555.552 427.464,-545.759"/>
<polygon fill="grey" stroke="grey" stroke-width="2" points="429.304,-542.78 419.03,-540.19 425.446,-548.621 429.304,-542.78"/>
</g>
<!-- 14 -->
<g id="node12" class="node"><title>14</title>
<path fill="none" stroke="#d87556" stroke-width="4" d="M480.5,-468C480.5,-468 401.5,-468 401.5,-468 395.5,-468 389.5,-462 389.5,-456 389.5,-456 389.5,-444 389.5,-444 389.5,-438 395.5,-432 401.5,-432 401.5,-432 480.5,-432 480.5,-432 486.5,-432 492.5,-438 492.5,-444 492.5,-444 492.5,-456 492.5,-456 492.5,-462 486.5,-468 480.5,-468"/>
<text text-anchor="middle" x="441" y="-446.9" font-family="sans" font-size="12.00">pipeline_quality</text>
</g>
<!-- 21&#45;&gt;14 -->
<g id="edge12" class="edge"><title>21&#45;&gt;14</title>
<path fill="none" stroke="grey" stroke-width="2" d="M494.151,-575.966C488.781,-557.826 479.486,-528.422 469,-504 465.182,-495.107 460.442,-485.681 455.955,-477.282"/>
<polygon fill="grey" stroke="grey" stroke-width="2" points="458.925,-475.418 451.058,-468.32 452.782,-478.774 458.925,-475.418"/>
</g>
<!-- 27 -->
<g id="node17" class="node"><title>27</title>
<path fill="none" stroke="#d8cb56" stroke-width="4" d="M1375,-252C1375,-252 1265,-252 1265,-252 1259,-252 1253,-246 1253,-240 1253,-240 1253,-228 1253,-228 1253,-222 1259,-216 1265,-216 1265,-216 1375,-216 1375,-216 1381,-216 1387,-222 1387,-228 1387,-228 1387,-240 1387,-240 1387,-246 1381,-252 1375,-252"/>
<text text-anchor="middle" x="1320" y="-230.9" font-family="sans" font-size="12.00">kraken_contaminant</text>
</g>
<!-- 21&#45;&gt;27 -->
<g id="edge41" class="edge"><title>21&#45;&gt;27</title>
<path fill="none" stroke="grey" stroke-width="2" d="M533.434,-592.485C673.958,-590.132 1199.53,-578.789 1262,-540 1300.92,-515.833 1314,-496.812 1314,-451 1314,-451 1314,-451 1314,-377 1314,-336.96 1316.41,-290.627 1318.18,-262.065"/>
<polygon fill="grey" stroke="grey" stroke-width="2" points="1321.67,-262.242 1318.81,-252.039 1314.69,-261.797 1321.67,-262.242"/>
</g>
<!-- 26 -->
<g id="node20" class="node"><title>26</title>
<path fill="none" stroke="#56d89a" stroke-width="4" d="M852,-540C852,-540 772,-540 772,-540 766,-540 760,-534 760,-528 760,-528 760,-516 760,-516 760,-510 766,-504 772,-504 772,-504 852,-504 852,-504 858,-504 864,-510 864,-516 864,-516 864,-528 864,-528 864,-534 858,-540 852,-540"/>
<text text-anchor="middle" x="812" y="-518.9" font-family="sans" font-size="12.00">bwa_mem__ref</text>
</g>
<!-- 21&#45;&gt;26 -->
<g id="edge42" class="edge"><title>21&#45;&gt;26</title>
<path fill="none" stroke="grey" stroke-width="2" d="M533.092,-585.376C584.979,-573.771 684.593,-551.494 749.653,-536.943"/>
<polygon fill="grey" stroke="grey" stroke-width="2" points="750.791,-540.276 759.786,-534.677 749.263,-533.444 750.791,-540.276"/>
</g>
<!-- 0&#45;&gt;14 -->
<g id="edge10" class="edge"><title>0&#45;&gt;14</title>
<path fill="none" stroke="grey" stroke-width="2" d="M560.349,-503.876C538.749,-494.307 511.649,-482.3 488.734,-472.148"/>
<polygon fill="grey" stroke="grey" stroke-width="2" points="490.086,-468.919 479.526,-468.068 487.251,-475.319 490.086,-468.919"/>
</g>
<!-- 6&#45;&gt;14 -->
<g id="edge13" class="edge"><title>6&#45;&gt;14</title>
<path fill="none" stroke="grey" stroke-width="2" d="M145.855,-507.52C151.991,-506.326 158.107,-505.139 164,-504 237.993,-489.692 323.145,-473.43 379.289,-462.736"/>
<polygon fill="grey" stroke="grey" stroke-width="2" points="380.257,-466.114 389.426,-460.805 378.947,-459.238 380.257,-466.114"/>
</g>
<!-- 22&#45;&gt;6 -->
<g id="edge5" class="edge"><title>22&#45;&gt;6</title>
<path fill="none" stroke="grey" stroke-width="2" d="M77,-719.849C77,-682.832 77,-595.181 77,-550.386"/>
<polygon fill="grey" stroke="grey" stroke-width="2" points="80.5001,-550.232 77,-540.232 73.5001,-550.232 80.5001,-550.232"/>
</g>
<!-- 8 -->
<g id="node8" class="node"><title>8</title>
<path fill="none" stroke="#5663d8" stroke-width="4" d="M376,-612C376,-612 310,-612 310,-612 304,-612 298,-606 298,-600 298,-600 298,-588 298,-588 298,-582 304,-576 310,-576 310,-576 376,-576 376,-576 382,-576 388,-582 388,-588 388,-588 388,-600 388,-600 388,-606 382,-612 376,-612"/>
<text text-anchor="middle" x="343" y="-590.9" font-family="sans" font-size="12.00">fastqc__phix</text>
</g>
<!-- 8&#45;&gt;6 -->
<g id="edge6" class="edge"><title>8&#45;&gt;6</title>
<path fill="none" stroke="grey" stroke-width="2" d="M297.899,-581.002C291.554,-579.319 285.114,-577.614 279,-576 237.005,-564.913 190.08,-552.597 152.035,-542.629"/>
<polygon fill="grey" stroke="grey" stroke-width="2" points="152.619,-539.164 142.058,-540.016 150.845,-545.936 152.619,-539.164"/>
</g>
<!-- 11 -->
<g id="node9" class="node"><title>11</title>
<path fill="none" stroke="#56d863" stroke-width="4" d="M249.5,-612C249.5,-612 154.5,-612 154.5,-612 148.5,-612 142.5,-606 142.5,-600 142.5,-600 142.5,-588 142.5,-588 142.5,-582 148.5,-576 154.5,-576 154.5,-576 249.5,-576 249.5,-576 255.5,-576 261.5,-582 261.5,-588 261.5,-588 261.5,-600 261.5,-600 261.5,-606 255.5,-612 249.5,-612"/>
<text text-anchor="middle" x="202" y="-590.9" font-family="sans" font-size="12.00">fastq_stats__phix</text>
</g>
<!-- 11&#45;&gt;6 -->
<g id="edge7" class="edge"><title>11&#45;&gt;6</title>
<path fill="none" stroke="grey" stroke-width="2" d="M171.422,-575.876C154.926,-566.639 134.376,-555.131 116.664,-545.212"/>
<polygon fill="grey" stroke="grey" stroke-width="2" points="118.131,-542.022 107.696,-540.19 114.711,-548.13 118.131,-542.022"/>
</g>
<!-- 4 -->
<g id="node10" class="node"><title>4</title>
<path fill="none" stroke="#d8a456" stroke-width="4" d="M462,-684C462,-684 360,-684 360,-684 354,-684 348,-678 348,-672 348,-672 348,-660 348,-660 348,-654 354,-648 360,-648 360,-648 462,-648 462,-648 468,-648 474,-654 474,-660 474,-660 474,-672 474,-672 474,-678 468,-684 462,-684"/>
<text text-anchor="middle" x="411" y="-662.9" font-family="sans" font-size="12.00">bwa_bam_to_fastq</text>
</g>
<!-- 4&#45;&gt;21 -->
<g id="edge31" class="edge"><title>4&#45;&gt;21</title>
<path fill="none" stroke="grey" stroke-width="2" d="M432.753,-647.697C443.836,-638.881 457.474,-628.032 469.49,-618.474"/>
<polygon fill="grey" stroke="grey" stroke-width="2" points="471.85,-621.069 477.497,-612.104 467.493,-615.59 471.85,-621.069"/>
</g>
<!-- 4&#45;&gt;8 -->
<g id="edge23" class="edge"><title>4&#45;&gt;8</title>
<path fill="none" stroke="grey" stroke-width="2" d="M394.191,-647.697C385.874,-639.135 375.695,-628.656 366.61,-619.304"/>
<polygon fill="grey" stroke="grey" stroke-width="2" points="369.094,-616.838 359.616,-612.104 364.073,-621.716 369.094,-616.838"/>
</g>
<!-- 4&#45;&gt;11 -->
<g id="edge8" class="edge"><title>4&#45;&gt;11</title>
<path fill="none" stroke="grey" stroke-width="2" d="M360.14,-647.966C330.811,-638.142 293.748,-625.729 262.876,-615.389"/>
<polygon fill="grey" stroke="grey" stroke-width="2" points="263.682,-611.968 253.088,-612.111 261.459,-618.606 263.682,-611.968"/>
</g>
<!-- 16 -->
<g id="node13" class="node"><title>16</title>
<path fill="none" stroke="#88d856" stroke-width="4" d="M286,-540C286,-540 194,-540 194,-540 188,-540 182,-534 182,-528 182,-528 182,-516 182,-516 182,-510 188,-504 194,-504 194,-504 286,-504 286,-504 292,-504 298,-510 298,-516 298,-516 298,-528 298,-528 298,-534 292,-540 286,-540"/>
<text text-anchor="middle" x="240" y="-518.9" font-family="sans" font-size="12.00">identify_adapters</text>
</g>
<!-- 4&#45;&gt;16 -->
<g id="edge25" class="edge"><title>4&#45;&gt;16</title>
<path fill="none" stroke="grey" stroke-width="2" d="M415.277,-647.967C419.097,-628.461 421.919,-596.556 406,-576 399.556,-567.679 351.066,-552.743 308.145,-540.843"/>
<polygon fill="grey" stroke="grey" stroke-width="2" points="308.81,-537.396 298.24,-538.122 306.955,-544.146 308.81,-537.396"/>
</g>
<!-- 12&#45;&gt;14 -->
<g id="edge14" class="edge"><title>12&#45;&gt;14</title>
<path fill="none" stroke="grey" stroke-width="2" d="M404.865,-503.697C410.503,-495.474 417.354,-485.483 423.569,-476.421"/>
<polygon fill="grey" stroke="grey" stroke-width="2" points="426.503,-478.331 429.271,-468.104 420.729,-474.372 426.503,-478.331"/>
</g>
<!-- 5 -->
<g id="node28" class="node"><title>5</title>
<path fill="none" stroke="#568ad8" stroke-width="4" d="M1045,-36C1045,-36 1015,-36 1015,-36 1009,-36 1003,-30 1003,-24 1003,-24 1003,-12 1003,-12 1003,-6 1009,-0 1015,-0 1015,-0 1045,-0 1045,-0 1051,-0 1057,-6 1057,-12 1057,-12 1057,-24 1057,-24 1057,-30 1051,-36 1045,-36"/>
<text text-anchor="middle" x="1030" y="-14.9" font-family="sans" font-size="12.00">all</text>
</g>
<!-- 14&#45;&gt;5 -->
<g id="edge40" class="edge"><title>14&#45;&gt;5</title>
<path fill="none" stroke="grey" stroke-width="2" d="M454.573,-431.755C473.359,-406.103 505,-355.674 505,-307 505,-307 505,-307 505,-161 505,-59.8361 872.836,-28.5383 992.719,-21.0243"/>
<polygon fill="grey" stroke="grey" stroke-width="2" points="993.11,-24.5071 1002.88,-20.4076 992.686,-17.52 993.11,-24.5071"/>
</g>
<!-- 16&#45;&gt;14 -->
<g id="edge11" class="edge"><title>16&#45;&gt;14</title>
<path fill="none" stroke="grey" stroke-width="2" d="M288.913,-503.966C316.997,-494.185 352.455,-481.836 382.068,-471.524"/>
<polygon fill="grey" stroke="grey" stroke-width="2" points="383.575,-474.705 391.868,-468.111 381.273,-468.094 383.575,-474.705"/>
</g>
<!-- 18&#45;&gt;4 -->
<g id="edge21" class="edge"><title>18&#45;&gt;4</title>
<path fill="none" stroke="grey" stroke-width="2" d="M411,-719.697C411,-711.983 411,-702.712 411,-694.112"/>
<polygon fill="grey" stroke="grey" stroke-width="2" points="414.5,-694.104 411,-684.104 407.5,-694.104 414.5,-694.104"/>
</g>
<!-- 17 -->
<g id="node15" class="node"><title>17</title>
<path fill="none" stroke="#d8b456" stroke-width="4" d="M1361.5,-180C1361.5,-180 1272.5,-180 1272.5,-180 1266.5,-180 1260.5,-174 1260.5,-168 1260.5,-168 1260.5,-156 1260.5,-156 1260.5,-150 1266.5,-144 1272.5,-144 1272.5,-144 1361.5,-144 1361.5,-144 1367.5,-144 1373.5,-150 1373.5,-156 1373.5,-156 1373.5,-168 1373.5,-168 1373.5,-174 1367.5,-180 1361.5,-180"/>
<text text-anchor="middle" x="1317" y="-158.9" font-family="sans" font-size="12.00">kraken_translate</text>
</g>
<!-- 3 -->
<g id="node16" class="node"><title>3</title>
<path fill="none" stroke="#567bd8" stroke-width="4" d="M1356.5,-108C1356.5,-108 1267.5,-108 1267.5,-108 1261.5,-108 1255.5,-102 1255.5,-96 1255.5,-96 1255.5,-84 1255.5,-84 1255.5,-78 1261.5,-72 1267.5,-72 1267.5,-72 1356.5,-72 1356.5,-72 1362.5,-72 1368.5,-78 1368.5,-84 1368.5,-84 1368.5,-96 1368.5,-96 1368.5,-102 1362.5,-108 1356.5,-108"/>
<text text-anchor="middle" x="1312" y="-86.9" font-family="sans" font-size="12.00">kraken_to_krona</text>
</g>
<!-- 17&#45;&gt;3 -->
<g id="edge17" class="edge"><title>17&#45;&gt;3</title>
<path fill="none" stroke="grey" stroke-width="2" d="M1315.76,-143.697C1315.21,-135.983 1314.55,-126.712 1313.94,-118.112"/>
<polygon fill="grey" stroke="grey" stroke-width="2" points="1317.43,-117.83 1313.22,-108.104 1310.44,-118.328 1317.43,-117.83"/>
</g>
<!-- 3&#45;&gt;5 -->
<g id="edge37" class="edge"><title>3&#45;&gt;5</title>
<path fill="none" stroke="grey" stroke-width="2" d="M1255.2,-73.0962C1253.78,-72.7245 1252.38,-72.3585 1251,-72 1186.65,-55.3218 1111.27,-37.6388 1067.26,-27.4984"/>
<polygon fill="grey" stroke="grey" stroke-width="2" points="1067.83,-24.0385 1057.3,-25.2094 1066.26,-30.8606 1067.83,-24.0385"/>
</g>
<!-- 27&#45;&gt;17 -->
<g id="edge18" class="edge"><title>27&#45;&gt;17</title>
<path fill="none" stroke="grey" stroke-width="2" d="M1319.26,-215.697C1318.93,-207.983 1318.53,-198.712 1318.16,-190.112"/>
<polygon fill="grey" stroke="grey" stroke-width="2" points="1321.66,-189.945 1317.73,-180.104 1314.66,-190.245 1321.66,-189.945"/>
</g>
<!-- 20 -->
<g id="node18" class="node"><title>20</title>
<path fill="none" stroke="#b6d856" stroke-width="4" d="M896.5,-396C896.5,-396 821.5,-396 821.5,-396 815.5,-396 809.5,-390 809.5,-384 809.5,-384 809.5,-372 809.5,-372 809.5,-366 815.5,-360 821.5,-360 821.5,-360 896.5,-360 896.5,-360 902.5,-360 908.5,-366 908.5,-372 908.5,-372 908.5,-384 908.5,-384 908.5,-390 902.5,-396 896.5,-396"/>
<text text-anchor="middle" x="859" y="-374.9" font-family="sans" font-size="12.00">indel_realigner</text>
</g>
<!-- 2 -->
<g id="node19" class="node"><title>2</title>
<path fill="none" stroke="#56d87b" stroke-width="4" d="M884,-324C884,-324 834,-324 834,-324 828,-324 822,-318 822,-312 822,-312 822,-300 822,-300 822,-294 828,-288 834,-288 834,-288 884,-288 884,-288 890,-288 896,-294 896,-300 896,-300 896,-312 896,-312 896,-318 890,-324 884,-324"/>
<text text-anchor="middle" x="859" y="-302.9" font-family="sans" font-size="12.00">freebayes</text>
</g>
<!-- 20&#45;&gt;2 -->
<g id="edge19" class="edge"><title>20&#45;&gt;2</title>
<path fill="none" stroke="grey" stroke-width="2" d="M859,-359.697C859,-351.983 859,-342.712 859,-334.112"/>
<polygon fill="grey" stroke="grey" stroke-width="2" points="862.5,-334.104 859,-324.104 855.5,-334.104 862.5,-334.104"/>
</g>
<!-- 23 -->
<g id="node27" class="node"><title>23</title>
<path fill="none" stroke="#c6d856" stroke-width="4" d="M949,-252C949,-252 907,-252 907,-252 901,-252 895,-246 895,-240 895,-240 895,-228 895,-228 895,-222 901,-216 907,-216 907,-216 949,-216 949,-216 955,-216 961,-222 961,-228 961,-228 961,-240 961,-240 961,-246 955,-252 949,-252"/>
<text text-anchor="middle" x="928" y="-230.9" font-family="sans" font-size="12.00">vcf_filter</text>
</g>
<!-- 2&#45;&gt;23 -->
<g id="edge34" class="edge"><title>2&#45;&gt;23</title>
<path fill="none" stroke="grey" stroke-width="2" d="M876.056,-287.697C884.495,-279.135 894.825,-268.656 904.043,-259.304"/>
<polygon fill="grey" stroke="grey" stroke-width="2" points="906.613,-261.683 911.14,-252.104 901.627,-256.769 906.613,-261.683"/>
</g>
<!-- 26&#45;&gt;20 -->
<g id="edge30" class="edge"><title>26&#45;&gt;20</title>
<path fill="none" stroke="grey" stroke-width="2" d="M822.137,-503.826C827.766,-493.684 834.516,-480.434 839,-468 846.286,-447.796 851.465,-424.02 854.725,-406.128"/>
<polygon fill="grey" stroke="grey" stroke-width="2" points="858.206,-406.54 856.466,-396.089 851.309,-405.344 858.206,-406.54"/>
</g>
<!-- 26&#45;&gt;2 -->
<g id="edge20" class="edge"><title>26&#45;&gt;2</title>
<path fill="none" stroke="grey" stroke-width="2" d="M759.943,-511.683C734.903,-504.301 707.105,-491.185 692,-468 683.266,-454.594 684.838,-446.307 692,-432 717.042,-381.977 772.665,-346.811 812.847,-326.785"/>
<polygon fill="grey" stroke="grey" stroke-width="2" points="814.462,-329.892 821.934,-322.381 811.409,-323.593 814.462,-329.892"/>
</g>
<!-- 24 -->
<g id="node21" class="node"><title>24</title>
<path fill="none" stroke="#d89556" stroke-width="4" d="M1240.5,-468C1240.5,-468 1123.5,-468 1123.5,-468 1117.5,-468 1111.5,-462 1111.5,-456 1111.5,-456 1111.5,-444 1111.5,-444 1111.5,-438 1117.5,-432 1123.5,-432 1123.5,-432 1240.5,-432 1240.5,-432 1246.5,-432 1252.5,-438 1252.5,-444 1252.5,-444 1252.5,-456 1252.5,-456 1252.5,-462 1246.5,-468 1240.5,-468"/>
<text text-anchor="middle" x="1182" y="-446.9" font-family="sans" font-size="12.00">bedtools_genomecov</text>
</g>
<!-- 26&#45;&gt;24 -->
<g id="edge35" class="edge"><title>26&#45;&gt;24</title>
<path fill="none" stroke="grey" stroke-width="2" d="M864.056,-511.219C920.468,-500.611 1013.13,-483.16 1093,-468 1095.66,-467.495 1098.37,-466.981 1101.1,-466.461"/>
<polygon fill="grey" stroke="grey" stroke-width="2" points="1101.91,-469.87 1111.08,-464.562 1100.6,-462.994 1101.91,-469.87"/>
</g>
<!-- 19 -->
<g id="node25" class="node"><title>19</title>
<path fill="none" stroke="#56c9d8" stroke-width="4" d="M1063.5,-468C1063.5,-468 908.5,-468 908.5,-468 902.5,-468 896.5,-462 896.5,-456 896.5,-456 896.5,-444 896.5,-444 896.5,-438 902.5,-432 908.5,-432 908.5,-432 1063.5,-432 1063.5,-432 1069.5,-432 1075.5,-438 1075.5,-444 1075.5,-444 1075.5,-456 1075.5,-456 1075.5,-462 1069.5,-468 1063.5,-468"/>
<text text-anchor="middle" x="986" y="-446.9" font-family="sans" font-size="12.00">create_sequence_dictionary</text>
</g>
<!-- 26&#45;&gt;19 -->
<g id="edge26" class="edge"><title>26&#45;&gt;19</title>
<path fill="none" stroke="grey" stroke-width="2" d="M854.565,-503.876C878.563,-494.222 908.728,-482.087 934.104,-471.878"/>
<polygon fill="grey" stroke="grey" stroke-width="2" points="935.602,-475.048 943.573,-468.068 932.989,-468.554 935.602,-475.048"/>
</g>
<!-- 28 -->
<g id="node26" class="node"><title>28</title>
<path fill="none" stroke="#d6d856" stroke-width="4" d="M809.5,-468C809.5,-468 722.5,-468 722.5,-468 716.5,-468 710.5,-462 710.5,-456 710.5,-456 710.5,-444 710.5,-444 710.5,-438 716.5,-432 722.5,-432 722.5,-432 809.5,-432 809.5,-432 815.5,-432 821.5,-438 821.5,-444 821.5,-444 821.5,-456 821.5,-456 821.5,-462 815.5,-468 809.5,-468"/>
<text text-anchor="middle" x="766" y="-446.9" font-family="sans" font-size="12.00">mark_duplicates</text>
</g>
<!-- 26&#45;&gt;28 -->
<g id="edge28" class="edge"><title>26&#45;&gt;28</title>
<path fill="none" stroke="grey" stroke-width="2" d="M800.629,-503.697C795.282,-495.559 788.796,-485.689 782.889,-476.701"/>
<polygon fill="grey" stroke="grey" stroke-width="2" points="785.657,-474.539 777.24,-468.104 779.807,-478.384 785.657,-474.539"/>
</g>
<!-- 7 -->
<g id="node22" class="node"><title>7</title>
<path fill="none" stroke="#56d8a9" stroke-width="4" d="M1134,-396C1134,-396 1048,-396 1048,-396 1042,-396 1036,-390 1036,-384 1036,-384 1036,-372 1036,-372 1036,-366 1042,-360 1048,-360 1048,-360 1134,-360 1134,-360 1140,-360 1146,-366 1146,-372 1146,-372 1146,-384 1146,-384 1146,-390 1140,-396 1134,-396"/>
<text text-anchor="middle" x="1091" y="-374.9" font-family="sans" font-size="12.00">report_mapping</text>
</g>
<!-- 24&#45;&gt;7 -->
<g id="edge22" class="edge"><title>24&#45;&gt;7</title>
<path fill="none" stroke="grey" stroke-width="2" d="M1159.51,-431.697C1148.04,-422.881 1133.94,-412.032 1121.52,-402.474"/>
<polygon fill="grey" stroke="grey" stroke-width="2" points="1123.3,-399.427 1113.24,-396.104 1119.03,-404.976 1123.3,-399.427"/>
</g>
<!-- 7&#45;&gt;5 -->
<g id="edge39" class="edge"><title>7&#45;&gt;5</title>
<path fill="none" stroke="grey" stroke-width="2" d="M1089.22,-359.973C1086.6,-333.343 1082,-280.205 1082,-235 1082,-235 1082,-235 1082,-161 1082,-118.492 1061.2,-72.9526 1045.91,-45.2194"/>
<polygon fill="grey" stroke="grey" stroke-width="2" points="1048.76,-43.1502 1040.77,-36.1866 1042.67,-46.6098 1048.76,-43.1502"/>
</g>
<!-- 25 -->
<g id="node23" class="node"><title>25</title>
<path fill="none" stroke="#a7d856" stroke-width="4" d="M960,-180C960,-180 930,-180 930,-180 924,-180 918,-174 918,-168 918,-168 918,-156 918,-156 918,-150 924,-144 930,-144 930,-144 960,-144 960,-144 966,-144 972,-150 972,-156 972,-156 972,-168 972,-168 972,-174 966,-180 960,-180"/>
<text text-anchor="middle" x="945" y="-158.9" font-family="sans" font-size="12.00">snpeff</text>
</g>
<!-- 15 -->
<g id="node24" class="node"><title>15</title>
<path fill="none" stroke="#56b9d8" stroke-width="4" d="M1005.5,-108C1005.5,-108 952.5,-108 952.5,-108 946.5,-108 940.5,-102 940.5,-96 940.5,-96 940.5,-84 940.5,-84 940.5,-78 946.5,-72 952.5,-72 952.5,-72 1005.5,-72 1005.5,-72 1011.5,-72 1017.5,-78 1017.5,-84 1017.5,-84 1017.5,-96 1017.5,-96 1017.5,-102 1011.5,-108 1005.5,-108"/>
<text text-anchor="middle" x="979" y="-86.9" font-family="sans" font-size="12.00">report_vcf</text>
</g>
<!-- 25&#45;&gt;15 -->
<g id="edge24" class="edge"><title>25&#45;&gt;15</title>
<path fill="none" stroke="grey" stroke-width="2" d="M953.404,-143.697C957.275,-135.728 961.952,-126.1 966.243,-117.264"/>
<polygon fill="grey" stroke="grey" stroke-width="2" points="969.471,-118.629 970.692,-108.104 963.175,-115.57 969.471,-118.629"/>
</g>
<!-- 15&#45;&gt;5 -->
<g id="edge38" class="edge"><title>15&#45;&gt;5</title>
<path fill="none" stroke="grey" stroke-width="2" d="M991.607,-71.6966C997.597,-63.4741 1004.88,-53.4832 1011.48,-44.4207"/>
<polygon fill="grey" stroke="grey" stroke-width="2" points="1014.48,-46.2477 1017.54,-36.1043 1008.82,-42.1257 1014.48,-46.2477"/>
</g>
<!-- 19&#45;&gt;20 -->
<g id="edge29" class="edge"><title>19&#45;&gt;20</title>
<path fill="none" stroke="grey" stroke-width="2" d="M954.932,-431.876C938.173,-422.639 917.294,-411.131 899.298,-401.212"/>
<polygon fill="grey" stroke="grey" stroke-width="2" points="900.634,-397.952 890.187,-396.19 897.255,-404.082 900.634,-397.952"/>
</g>
<!-- 28&#45;&gt;20 -->
<g id="edge27" class="edge"><title>28&#45;&gt;20</title>
<path fill="none" stroke="grey" stroke-width="2" d="M788.989,-431.697C800.814,-422.796 815.392,-411.823 828.179,-402.199"/>
<polygon fill="grey" stroke="grey" stroke-width="2" points="830.391,-404.915 836.276,-396.104 826.181,-399.322 830.391,-404.915"/>
</g>
<!-- 23&#45;&gt;25 -->
<g id="edge36" class="edge"><title>23&#45;&gt;25</title>
<path fill="none" stroke="grey" stroke-width="2" d="M932.202,-215.697C934.096,-207.898 936.377,-198.509 938.484,-189.829"/>
<polygon fill="grey" stroke="grey" stroke-width="2" points="941.887,-190.648 940.846,-180.104 935.085,-188.996 941.887,-190.648"/>
</g>
</g>
</svg>
