<?xml version="1.0" encoding="UTF-8" standalone="no"?>
<!DOCTYPE svg PUBLIC "-//W3C//DTD SVG 1.1//EN"
 "http://www.w3.org/Graphics/SVG/1.1/DTD/svg11.dtd">
<!-- Generated by graphviz version 2.38.0 (20140413.2041)
 -->
<!-- Title: snakemake_dag Pages: 1 -->
<svg width="551pt" height="332pt"
 viewBox="0.00 0.00 550.50 332.00" xmlns="http://www.w3.org/2000/svg" xmlns:xlink="http://www.w3.org/1999/xlink">
<g id="graph0" class="graph" transform="scale(1 1) rotate(0) translate(4 328)">
<title>snakemake_dag</title>
<polygon fill="white" stroke="none" points="-4,4 -4,-328 546.5,-328 546.5,4 -4,4"/>
<!-- 0 -->
<g id="node1" class="node"><title>0</title>
<g id="a_node1"><a xlink:href="all.html" xlink:title="all" target="_blank">
<path fill="none" stroke="#d88d56" stroke-width="2" d="M214,-36C214,-36 184,-36 184,-36 178,-36 172,-30 172,-24 172,-24 172,-12 172,-12 172,-6 178,-0 184,-0 184,-0 214,-0 214,-0 220,-0 226,-6 226,-12 226,-12 226,-24 226,-24 226,-30 220,-36 214,-36"/>
<text text-anchor="middle" x="199" y="-15.5" font-family="sans" font-size="10.00">all</text>
</a>
</g>
</g>
<!-- 1 -->
<g id="node2" class="node"><title>1</title>
<g id="a_node2"><a xlink:href="fastqc\ndataset: Hm2_GTGAAA_L005_R1_001.html" xlink:title="fastqc\ndataset: Hm2_GTGAAA_L005_R1_001" target="_blank">
<path fill="none" stroke="#56d8a9" stroke-width="2" d="M285.5,-108C285.5,-108 112.5,-108 112.5,-108 106.5,-108 100.5,-102 100.5,-96 100.5,-96 100.5,-84 100.5,-84 100.5,-78 106.5,-72 112.5,-72 112.5,-72 285.5,-72 285.5,-72 291.5,-72 297.5,-78 297.5,-84 297.5,-84 297.5,-96 297.5,-96 297.5,-102 291.5,-108 285.5,-108"/>
<text text-anchor="middle" x="199" y="-93" font-family="sans" font-size="10.00">fastqc</text>
<text text-anchor="middle" x="199" y="-82" font-family="sans" font-size="10.00">dataset: Hm2_GTGAAA_L005_R1_001</text>
</a>
</g>
</g>
<!-- 1&#45;&gt;0 -->
<g id="edge2" class="edge"><title>1&#45;&gt;0</title>
<path fill="none" stroke="grey" stroke-width="2" d="M199,-71.6966C199,-63.9827 199,-54.7125 199,-46.1124"/>
<polygon fill="grey" stroke="grey" stroke-width="2" points="202.5,-46.1043 199,-36.1043 195.5,-46.1044 202.5,-46.1043"/>
</g>
<!-- 2 -->
<g id="node3" class="node"><title>2</title>
<g id="a_node3"><a xlink:href="bwa_bam_to_fastq.html" xlink:title="bwa_bam_to_fastq" target="_blank">
<path fill="none" stroke="#70d856" stroke-width="2" d="M410.5,-108C410.5,-108 327.5,-108 327.5,-108 321.5,-108 315.5,-102 315.5,-96 315.5,-96 315.5,-84 315.5,-84 315.5,-78 321.5,-72 327.5,-72 327.5,-72 410.5,-72 410.5,-72 416.5,-72 422.5,-78 422.5,-84 422.5,-84 422.5,-96 422.5,-96 422.5,-102 416.5,-108 410.5,-108"/>
<text text-anchor="middle" x="369" y="-87.5" font-family="sans" font-size="10.00">bwa_bam_to_fastq</text>
</a>
</g>
</g>
<!-- 2&#45;&gt;0 -->
<g id="edge1" class="edge"><title>2&#45;&gt;0</title>
<path fill="none" stroke="grey" stroke-width="2" d="M327.413,-71.8761C299.311,-60.3045 262.554,-45.1695 235.57,-34.0584"/>
<polygon fill="grey" stroke="grey" stroke-width="2" points="236.685,-30.7321 226.105,-30.1609 234.019,-37.2049 236.685,-30.7321"/>
</g>
<!-- 3 -->
<g id="node4" class="node"><title>3</title>
<g id="a_node4"><a xlink:href="sampling\ndataset: Hm2_GTGAAA_L005_R2_001.html" xlink:title="sampling\ndataset: Hm2_GTGAAA_L005_R2_001" target="_blank">
<path fill="none" stroke="#afd856" stroke-width="2" stroke-dasharray="5,2" d="M212.5,-324C212.5,-324 39.5,-324 39.5,-324 33.5,-324 27.5,-318 27.5,-312 27.5,-312 27.5,-300 27.5,-300 27.5,-294 33.5,-288 39.5,-288 39.5,-288 212.5,-288 212.5,-288 218.5,-288 224.5,-294 224.5,-300 224.5,-300 224.5,-312 224.5,-312 224.5,-318 218.5,-324 212.5,-324"/>
<text text-anchor="middle" x="126" y="-309" font-family="sans" font-size="10.00">sampling</text>
<text text-anchor="middle" x="126" y="-298" font-family="sans" font-size="10.00">dataset: Hm2_GTGAAA_L005_R2_001</text>
</a>
</g>
</g>
<!-- 4 -->
<g id="node5" class="node"><title>4</title>
<g id="a_node5"><a xlink:href="cutadapt.html" xlink:title="cutadapt" target="_blank">
<path fill="none" stroke="#5692d8" stroke-width="2" stroke-dasharray="5,2" d="M250.5,-252C250.5,-252 215.5,-252 215.5,-252 209.5,-252 203.5,-246 203.5,-240 203.5,-240 203.5,-228 203.5,-228 203.5,-222 209.5,-216 215.5,-216 215.5,-216 250.5,-216 250.5,-216 256.5,-216 262.5,-222 262.5,-228 262.5,-228 262.5,-240 262.5,-240 262.5,-246 256.5,-252 250.5,-252"/>
<text text-anchor="middle" x="233" y="-231.5" font-family="sans" font-size="10.00">cutadapt</text>
</a>
</g>
</g>
<!-- 3&#45;&gt;4 -->
<g id="edge9" class="edge"><title>3&#45;&gt;4</title>
<path fill="none" stroke="grey" stroke-width="2" d="M152.175,-287.876C166.036,-278.808 183.241,-267.552 198.211,-257.759"/>
<polygon fill="grey" stroke="grey" stroke-width="2" points="200.272,-260.593 206.724,-252.19 196.44,-254.735 200.272,-260.593"/>
</g>
<!-- 4&#45;&gt;1 -->
<g id="edge6" class="edge"><title>4&#45;&gt;1</title>
<path fill="none" stroke="grey" stroke-width="2" d="M228.899,-215.871C223.079,-191.564 212.365,-146.819 205.468,-118.013"/>
<polygon fill="grey" stroke="grey" stroke-width="2" points="208.848,-117.099 203.116,-108.189 202.041,-118.729 208.848,-117.099"/>
</g>
<!-- 5 -->
<g id="node6" class="node"><title>5</title>
<g id="a_node6"><a xlink:href="bwa_fix.html" xlink:title="bwa_fix" target="_blank">
<path fill="none" stroke="#d8cb56" stroke-width="2" stroke-dasharray="5,2" d="M302,-180C302,-180 272,-180 272,-180 266,-180 260,-174 260,-168 260,-168 260,-156 260,-156 260,-150 266,-144 272,-144 272,-144 302,-144 302,-144 308,-144 314,-150 314,-156 314,-156 314,-168 314,-168 314,-174 308,-180 302,-180"/>
<text text-anchor="middle" x="287" y="-159.5" font-family="sans" font-size="10.00">bwa_fix</text>
</a>
</g>
</g>
<!-- 4&#45;&gt;5 -->
<g id="edge10" class="edge"><title>4&#45;&gt;5</title>
<path fill="none" stroke="grey" stroke-width="2" d="M246.348,-215.697C252.757,-207.389 260.558,-197.277 267.606,-188.141"/>
<polygon fill="grey" stroke="grey" stroke-width="2" points="270.468,-190.16 273.805,-180.104 264.926,-185.884 270.468,-190.16"/>
</g>
<!-- 7 -->
<g id="node8" class="node"><title>7</title>
<g id="a_node8"><a xlink:href="fastqc\ndataset: Hm2_GTGAAA_L005_R2_001.html" xlink:title="fastqc\ndataset: Hm2_GTGAAA_L005_R2_001" target="_blank">
<path fill="none" stroke="#56d8a9" stroke-width="2" d="M530.5,-180C530.5,-180 357.5,-180 357.5,-180 351.5,-180 345.5,-174 345.5,-168 345.5,-168 345.5,-156 345.5,-156 345.5,-150 351.5,-144 357.5,-144 357.5,-144 530.5,-144 530.5,-144 536.5,-144 542.5,-150 542.5,-156 542.5,-156 542.5,-168 542.5,-168 542.5,-174 536.5,-180 530.5,-180"/>
<text text-anchor="middle" x="444" y="-165" font-family="sans" font-size="10.00">fastqc</text>
<text text-anchor="middle" x="444" y="-154" font-family="sans" font-size="10.00">dataset: Hm2_GTGAAA_L005_R2_001</text>
</a>
</g>
</g>
<!-- 4&#45;&gt;7 -->
<g id="edge11" class="edge"><title>4&#45;&gt;7</title>
<path fill="none" stroke="grey" stroke-width="2" d="M262.784,-223.119C293.782,-212.835 343.212,-196.437 382.623,-183.362"/>
<polygon fill="grey" stroke="grey" stroke-width="2" points="384.02,-186.586 392.409,-180.116 381.815,-179.942 384.02,-186.586"/>
</g>
<!-- 8 -->
<g id="node9" class="node"><title>8</title>
<g id="a_node9"><a xlink:href="report.html" xlink:title="report" target="_blank">
<path fill="none" stroke="#56d873" stroke-width="2" d="M70,-108C70,-108 40,-108 40,-108 34,-108 28,-102 28,-96 28,-96 28,-84 28,-84 28,-78 34,-72 40,-72 40,-72 70,-72 70,-72 76,-72 82,-78 82,-84 82,-84 82,-96 82,-96 82,-102 76,-108 70,-108"/>
<text text-anchor="middle" x="55" y="-87.5" font-family="sans" font-size="10.00">report</text>
</a>
</g>
</g>
<!-- 4&#45;&gt;8 -->
<g id="edge13" class="edge"><title>4&#45;&gt;8</title>
<path fill="none" stroke="grey" stroke-width="2" d="M211.529,-215.871C179.856,-190.604 120.502,-143.254 84.6819,-114.679"/>
<polygon fill="grey" stroke="grey" stroke-width="2" points="86.5471,-111.689 76.5471,-108.189 82.1817,-117.162 86.5471,-111.689"/>
</g>
<!-- 5&#45;&gt;2 -->
<g id="edge7" class="edge"><title>5&#45;&gt;2</title>
<path fill="none" stroke="grey" stroke-width="2" d="M307.27,-143.697C317.498,-134.965 330.061,-124.24 341.178,-114.75"/>
<polygon fill="grey" stroke="grey" stroke-width="2" points="343.63,-117.259 348.963,-108.104 339.085,-111.935 343.63,-117.259"/>
</g>
<!-- 6 -->
<g id="node7" class="node"><title>6</title>
<g id="a_node7"><a xlink:href="sampling\ndataset: Hm2_GTGAAA_L005_R1_001.html" xlink:title="sampling\ndataset: Hm2_GTGAAA_L005_R1_001" target="_blank">
<path fill="none" stroke="#afd856" stroke-width="2" stroke-dasharray="5,2" d="M427.5,-324C427.5,-324 254.5,-324 254.5,-324 248.5,-324 242.5,-318 242.5,-312 242.5,-312 242.5,-300 242.5,-300 242.5,-294 248.5,-288 254.5,-288 254.5,-288 427.5,-288 427.5,-288 433.5,-288 439.5,-294 439.5,-300 439.5,-300 439.5,-312 439.5,-312 439.5,-318 433.5,-324 427.5,-324"/>
<text text-anchor="middle" x="341" y="-309" font-family="sans" font-size="10.00">sampling</text>
<text text-anchor="middle" x="341" y="-298" font-family="sans" font-size="10.00">dataset: Hm2_GTGAAA_L005_R1_001</text>
</a>
</g>
</g>
<!-- 6&#45;&gt;4 -->
<g id="edge8" class="edge"><title>6&#45;&gt;4</title>
<path fill="none" stroke="grey" stroke-width="2" d="M314.58,-287.876C300.59,-278.808 283.224,-267.552 268.114,-257.759"/>
<polygon fill="grey" stroke="grey" stroke-width="2" points="269.817,-254.692 259.521,-252.19 266.009,-260.566 269.817,-254.692"/>
</g>
<!-- 7&#45;&gt;0 -->
<g id="edge3" class="edge"><title>7&#45;&gt;0</title>
<path fill="none" stroke="grey" stroke-width="2" d="M446.72,-143.867C448.834,-123.964 448.904,-91.3878 431,-72 405.021,-43.8673 295.022,-28.6873 236.302,-22.4525"/>
<polygon fill="grey" stroke="grey" stroke-width="2" points="236.615,-18.9663 226.309,-21.4254 235.899,-25.9296 236.615,-18.9663"/>
</g>
<!-- 8&#45;&gt;0 -->
<g id="edge4" class="edge"><title>8&#45;&gt;0</title>
<path fill="none" stroke="grey" stroke-width="2" d="M82.0853,-75.8335C104.769,-64.8066 137.357,-48.9655 162.368,-36.8072"/>
<polygon fill="grey" stroke="grey" stroke-width="2" points="164.083,-39.8652 171.547,-32.3454 161.023,-33.5696 164.083,-39.8652"/>
</g>
<!-- 9 -->
<g id="node10" class="node"><title>9</title>
<g id="a_node10"><a xlink:href="dag.html" xlink:title="dag" target="_blank">
<path fill="none" stroke="#d85656" stroke-width="2" stroke-dasharray="5,2" d="M42,-180C42,-180 12,-180 12,-180 6,-180 0,-174 0,-168 0,-168 0,-156 0,-156 0,-150 6,-144 12,-144 12,-144 42,-144 42,-144 48,-144 54,-150 54,-156 54,-156 54,-168 54,-168 54,-174 48,-180 42,-180"/>
<text text-anchor="middle" x="27" y="-159.5" font-family="sans" font-size="10.00">dag</text>
</a>
</g>
</g>
<!-- 9&#45;&gt;0 -->
<g id="edge5" class="edge"><title>9&#45;&gt;0</title>
<path fill="none" stroke="grey" stroke-width="2" d="M19.1447,-143.731C11.6144,-124.299 3.48181,-92.7461 19,-72 36.1334,-49.0945 114.466,-32.6739 161.97,-24.6201"/>
<polygon fill="grey" stroke="grey" stroke-width="2" points="162.596,-28.0643 171.893,-22.9831 161.456,-21.1576 162.596,-28.0643"/>
</g>
<!-- 9&#45;&gt;8 -->
<g id="edge12" class="edge"><title>9&#45;&gt;8</title>
<path fill="none" stroke="grey" stroke-width="2" d="M33.9214,-143.697C37.0747,-135.813 40.8783,-126.304 44.3814,-117.546"/>
<polygon fill="grey" stroke="grey" stroke-width="2" points="47.694,-118.689 48.1583,-108.104 41.1946,-116.089 47.694,-118.689"/>
</g>
</g>
</svg>
